# xmcd CD database file
#
# Track frame offsets:
#	150
#	29770
#	48159
#	73590
#	102700
#	129892
#	154488
#	179144
#	207712
#
# Disc length: 3087 seconds
#
# Revision: 1
# Processed by: cddbd v1.5.2PL0 Copyright (c) Steve Scherf et al.
# Submitted via: CDex 2.13
#
DISCID=8e0c0d09
DTITLE=Paulie Cerra - A Sliver of the Moon
DYEAR=1900
DGENRE=Blues
TTITLE0=A Much Better Place
TTITLE1=On My Way Home
TTITLE2=Nice To Be Home Again (For Ron and Deb)
TTITLE3=Same As I'm Over You
TTITLE4=Down The Road
TTITLE5=My Angel's Smile (For John and Samantha)
TTITLE6=Junkie's Lament
TTITLE7=Weak In The Knees
TTITLE8=While We're At It
EXTD=
EXTT0=
EXTT1=
EXTT2=
EXTT3=
EXTT4=
EXTT5=
EXTT6=
EXTT7=
EXTT8=
PLAYORDER=
